<svg width="160" height="60" viewBox="0 0 160 60" xmlns="http://www.w3.org/2000/svg">
    <g fill="none" fill-rule="evenodd">
        <g transform="translate(140 40)">
            <ellipse fill="#FECF33" cx="10" cy="10" rx="10" ry="10"/>
            <g transform="rotate(-15 25.378 -15.71)">
                <path d="M7.222 10c1.228 0 2.222-2.239 2.222-5S8.45 0 7.222 0v10zM7.222 10C5.995 10 5 7.761 5 5s.995-5 2.222-5v10z"
                      fill="#FFF"/>
                <path fill="#FFF" d="M0 3.889L6.667.159v9.686L0 6.111z"/>
                <ellipse fill="#DDDADC" cx="7.222" cy="5" rx="1.667" ry="4.444"/>
                <path d="M3.033 5.68V4.171l2.785-.36c.61-.079 1.104.354 1.104.968v.294c0 .613-.493 1.047-1.104.967l-2.785-.36z"
                      fill="#FFF"/>
            </g>
            <g fill="#EE6723">
                <path d="M4.407 9.659a.76.76 0 0 0-.224.025c-.592.159-.88 1.009-.641 1.898.238.889.911 1.48 1.504 1.322a.76.76 0 0 0 .206-.09l1.797-1.022-.575-2.146-2.067.013z"/>
                <path d="M6.176 11.45l1.458-.39 1.232 3.134a.967.967 0 0 1-.668 1.316l-.285.077a.967.967 0 0 1-1.236-.806l-.5-3.33z"/>
                <path d="M8.103 7.681L5.937 9.79l.575 2.147 2.93.744c-.44-.636-.82-1.46-1.07-2.392-.25-.933-.333-1.835-.27-2.607z"/>
            </g>
        </g>
        <g>
            <circle fill="#FECF33" cx="30" cy="30" r="30"/>
            <g transform="rotate(-15 76.135 -47.128)">
                <path d="M21.667 30c3.682 0 6.666-6.716 6.666-15 0-8.284-2.984-15-6.666-15v30zM21.667 30C17.985 30 15 23.284 15 15c0-8.284 2.985-15 6.667-15v30z"
                      fill="#FFF"/>
                <path fill="#FFF" d="M0 11.667L20 .475v29.06L0 18.334z"/>
                <ellipse fill="#DDDADC" cx="21.667" cy="15" rx="5" ry="13.333"/>
                <path d="M9.1 17.04v-4.526l8.692-1.125c1.642-.212 2.974.965 2.974 2.62v1.537c0 1.659-1.338 2.83-2.974 2.62L9.099 17.04z"
                      fill="#FFF"/>
            </g>
            <g fill="#EE6723">
                <path d="M13.22 28.977a2.281 2.281 0 0 0-.67.076c-1.778.476-2.64 3.025-1.925 5.692.714 2.667 2.735 4.443 4.514 3.967.22-.06.427-.15.618-.27l5.39-3.065-1.726-6.44-6.2.04z"/>
                <path d="M18.53 34.352l4.372-1.171 3.813 9.701c.605 1.54-.208 3.136-1.806 3.565l-1.485.398c-1.603.429-3.1-.544-3.346-2.184l-1.549-10.309z"/>
                <path d="M24.308 23.044l-6.497 6.324 1.726 6.44 8.791 2.233c-1.324-1.909-2.465-4.38-3.214-7.178-.75-2.797-.998-5.504-.806-7.819z"/>
            </g>
        </g>
        <g transform="translate(80 20)">
            <circle fill="#FECF33" cx="20" cy="20" r="20"/>
            <g transform="rotate(-15 50.757 -31.418)">
                <path d="M14.444 20c2.455 0 4.445-4.477 4.445-10s-1.99-10-4.445-10v20zM14.444 20C11.99 20 10 15.523 10 10s1.99-10 4.444-10v20z"
                      fill="#FFF"/>
                <path fill="#FFF" d="M0 7.778L13.333.316v19.375L0 12.222z"/>
                <ellipse fill="#DDDADC" cx="14.444" cy="10" rx="3.333" ry="8.889"/>
                <path d="M6.066 11.36V8.344l5.57-.72c1.22-.159 2.208.707 2.208 1.934v.589c0 1.226-.985 2.093-2.208 1.935l-5.57-.72z"
                      fill="#FFF"/>
            </g>
            <g fill="#EE6723">
                <path d="M8.813 19.318a1.52 1.52 0 0 0-.446.05c-1.186.318-1.76 2.017-1.284 3.795.477 1.779 1.824 2.963 3.01 2.645.146-.04.284-.1.411-.18l3.594-2.044-1.15-4.293-4.135.027z"/>
                <path d="M12.353 22.902l2.915-.781 2.455 6.246c.451 1.148-.143 2.336-1.328 2.654l-.568.152c-1.185.318-2.293-.405-2.477-1.634l-.997-6.637z"/>
                <path d="M16.205 15.363l-4.33 4.216 1.15 4.293 5.86 1.489c-.882-1.273-1.643-2.92-2.143-4.786-.5-1.864-.664-3.67-.537-5.212z"/>
            </g>
        </g>
    </g>
</svg>